<?xml version="1.0" standalone="no"?>
<!DOCTYPE svg PUBLIC "-//W3C//DTD SVG 20010904//EN"
 "http://www.w3.org/TR/2001/REC-SVG-20010904/DTD/svg10.dtd">
<svg version="1.0" xmlns="http://www.w3.org/2000/svg"
 width="1000.000000pt" height="1000.000000pt" viewBox="0 0 1000.000000 1000.000000"
 preserveAspectRatio="xMidYMid meet">
<metadata>
Created by potrace 1.14, written by Peter Selinger 2001-2017
</metadata>
<g transform="translate(0.000000,1000.000000) scale(0.100000,-0.100000)"
fill="#000000" stroke="none">
<path d="M0 5000 l0 -5000 5000 0 5000 0 0 5000 0 5000 -5000 0 -5000 0 0
-5000z m5510 4286 c244 -27 484 -63 740 -112 681 -130 1056 -225 1350 -341
144 -57 184 -77 238 -121 23 -19 117 -85 208 -147 169 -116 253 -190 499 -446
351 -363 579 -666 768 -1019 107 -202 221 -511 272 -740 9 -41 22 -102 30
-135 39 -172 79 -475 90 -685 3 -63 15 -266 26 -450 45 -761 37 -1055 -42
-1515 -27 -159 -242 -638 -448 -997 -48 -84 -105 -184 -126 -223 -150 -270
-520 -721 -675 -820 -277 -177 -1024 -615 -1078 -631 -256 -78 -737 -184
-1032 -228 -101 -16 -385 -42 -755 -71 -437 -34 -952 -9 -1450 71 -153 25
-399 78 -495 106 l-45 14 45 22 c31 15 58 40 85 79 22 31 63 82 92 114 28 31
56 66 62 78 15 28 50 27 109 -3 26 -13 96 -40 156 -61 95 -32 117 -36 170 -31
179 17 259 35 317 72 21 13 51 24 67 24 38 0 52 17 52 61 l0 38 -60 -25 c-33
-13 -93 -29 -132 -35 -66 -10 -88 -8 -233 21 -239 46 -302 60 -363 81 -30 10
-68 19 -83 19 -39 0 -179 52 -409 152 -477 208 -510 220 -510 194 0 -14 -8
-16 -49 -10 -62 8 -97 0 -111 -26 -17 -31 0 -50 117 -131 146 -101 283 -182
372 -219 40 -16 96 -43 125 -59 28 -16 89 -46 136 -66 46 -20 86 -38 88 -40 2
-2 -15 -34 -38 -72 -52 -86 -58 -109 -36 -146 l17 -30 -31 6 c-17 4 -55 18
-85 32 -31 14 -59 25 -63 25 -19 0 -229 73 -357 125 -167 67 -461 211 -600
293 -55 33 -117 63 -137 66 -72 13 -419 241 -656 432 -70 56 -201 174 -291
263 l-165 161 50 53 c28 28 68 75 89 102 21 28 59 71 84 97 l44 47 30 -21 c77
-55 155 -140 186 -202 43 -88 99 -162 217 -285 98 -103 168 -162 232 -195 32
-17 34 -19 30 -69 l-3 -51 85 -42 c97 -49 104 -51 91 -26 -50 92 -55 116 -52
217 3 99 2 101 -28 139 -17 21 -31 44 -31 51 0 31 -85 135 -162 198 -342 281
-569 482 -620 552 -68 93 -138 211 -138 233 0 11 -14 37 -31 58 -48 60 -59 89
-74 185 -16 112 -50 184 -85 184 -55 0 -64 -103 -17 -203 20 -43 23 -60 16
-85 -5 -18 -9 -55 -9 -84 0 -50 3 -56 51 -105 50 -52 62 -73 75 -125 7 -26 7
-26 -17 -10 -62 44 -51 3 22 -79 71 -80 102 -139 88 -166 -5 -10 -14 -18 -19
-18 -4 0 -50 -49 -100 -110 -50 -60 -95 -110 -100 -110 -11 0 -169 209 -250
330 -168 251 -290 476 -355 655 -217 598 -345 1281 -349 1850 -1 189 1 208 31
355 18 85 49 241 68 345 20 105 44 228 55 275 10 47 24 114 30 150 19 110 38
163 93 261 29 52 82 148 116 214 301 569 735 1281 851 1394 77 76 480 452 590
551 128 117 140 124 315 195 591 242 1188 354 2185 409 36 2 229 2 430 1 313
-3 400 -7 610 -29z"/>
<path d="M3193 6951 c-65 -51 -94 -89 -193 -251 -139 -226 -211 -390 -269
-612 -51 -196 -73 -403 -42 -403 16 0 20 13 46 130 40 185 154 514 242 703 29
62 51 69 50 16 -1 -26 5 -42 20 -53 28 -23 29 -27 62 -288 30 -233 39 -273 67
-273 32 0 37 42 26 232 -8 138 -15 200 -32 252 l-22 69 42 121 c64 184 81 226
89 226 4 0 17 -21 30 -47 24 -52 52 -100 186 -328 112 -189 156 -268 267 -480
98 -186 132 -231 168 -220 33 10 20 41 -74 185 -51 77 -101 169 -131 240 -85
202 -202 420 -335 621 -44 66 -80 126 -80 133 0 12 -32 46 -57 60 -6 3 -33
-11 -60 -33z"/>
<path d="M3122 5800 c-74 -38 -176 -99 -228 -135 -52 -36 -98 -65 -103 -65 -6
0 -15 8 -20 18 -9 15 -12 15 -21 2 -5 -8 -12 -19 -14 -25 -5 -11 -23 8 -48 54
-10 19 -25 31 -38 31 -18 0 -20 -6 -20 -66 l0 -66 -99 -132 c-182 -241 -273
-351 -335 -402 -74 -62 -254 -254 -323 -346 -65 -84 -81 -129 -59 -163 22 -34
71 -42 105 -18 14 11 78 82 141 158 63 76 206 237 317 356 111 120 204 226
207 236 3 10 19 26 35 36 16 9 41 31 55 48 69 82 390 338 556 444 41 27 77 50
79 52 5 4 -40 53 -48 53 -3 0 -66 -32 -139 -70z"/>
<path d="M4041 5664 c22 -30 52 -57 79 -71 25 -12 259 -128 520 -257 526 -260
612 -312 797 -484 131 -122 206 -174 245 -170 26 3 31 -2 43 -32 7 -19 29 -72
49 -117 21 -47 50 -140 67 -220 30 -134 31 -146 30 -380 l-1 -243 -50 -207
c-28 -115 -59 -235 -70 -268 -11 -33 -28 -105 -39 -160 -37 -180 -168 -559
-231 -667 -10 -18 -42 -96 -71 -173 -28 -77 -55 -144 -59 -148 -4 -5 -43 13
-86 41 -227 144 -584 340 -846 465 -85 41 -158 80 -163 86 -4 7 -1 20 7 29 25
29 144 224 177 289 46 93 82 194 75 215 -3 10 -16 26 -30 34 -33 22 -48 8 -75
-74 -29 -89 -93 -228 -124 -267 -32 -43 -77 -62 -112 -46 -21 10 -24 16 -19
41 8 40 -6 38 -43 -7 -37 -45 -37 -47 -10 -84 17 -24 18 -33 9 -44 -17 -20
-33 -19 -77 5 -41 22 -83 26 -83 9 0 -10 33 -42 89 -87 l24 -19 -30 -44 c-17
-25 -43 -51 -58 -59 -26 -14 -33 -12 -162 55 -114 59 -251 139 -269 158 -6 5
30 109 64 189 21 46 21 47 69 47 26 0 75 1 108 1 111 1 153 29 201 134 64 140
-9 283 -191 376 -71 36 -175 49 -243 31 -50 -14 -113 -67 -136 -115 -39 -83 7
-244 97 -339 20 -22 37 -44 37 -50 0 -5 -16 -37 -35 -71 -19 -35 -38 -84 -41
-109 -4 -26 -9 -47 -11 -47 -3 0 -62 26 -131 59 -191 88 -346 145 -377 137
-69 -17 -7 -67 274 -219 30 -16 113 -56 185 -89 72 -33 171 -88 221 -123 50
-34 112 -73 138 -85 26 -12 47 -26 47 -31 0 -5 -38 -34 -84 -65 -81 -54 -88
-56 -178 -66 -161 -18 -176 -16 -279 35 -200 97 -382 287 -424 441 -23 83 -10
156 40 238 19 31 35 66 35 78 0 20 3 21 40 15 33 -6 40 -4 40 10 0 9 -13 21
-30 26 -35 13 -35 11 -14 66 19 48 25 51 62 24 35 -24 72 -35 72 -22 0 8 -30
34 -79 68 -2 2 -5 11 -6 21 -1 9 -6 27 -13 38 -7 14 -9 45 -5 89 5 58 17 88
80 212 l74 144 -32 13 c-44 19 -63 11 -115 -48 -50 -56 -85 -124 -133 -260
-17 -48 -33 -92 -36 -96 -3 -4 -83 27 -177 69 -95 42 -207 91 -248 108 -41 17
-151 63 -244 102 -160 67 -214 85 -190 61 11 -11 188 -91 254 -115 19 -7 60
-25 90 -40 133 -65 413 -194 444 -205 57 -18 61 -30 36 -105 -19 -59 -25 -66
-44 -62 -52 13 -280 60 -486 101 -388 77 -722 146 -809 167 -81 19 -119 19
-107 0 4 -5 25 -12 49 -16 23 -4 125 -27 227 -51 102 -24 214 -51 250 -59 222
-48 352 -76 400 -84 60 -11 408 -85 453 -96 28 -8 34 -24 17 -55 -6 -10 -24
-73 -40 -139 -17 -67 -49 -176 -72 -244 -41 -120 -42 -124 -42 -257 1 -170 19
-256 80 -378 57 -113 113 -168 252 -247 82 -46 110 -56 176 -66 140 -19 274
23 425 135 34 25 90 62 124 83 74 44 144 98 212 163 77 73 247 260 279 308 16
23 34 42 41 42 7 0 108 -89 225 -197 355 -332 638 -571 711 -603 13 -5 60 -33
104 -60 44 -27 85 -50 92 -50 22 0 50 54 98 185 98 268 117 322 137 380 11 33
29 69 38 80 19 21 81 210 154 470 25 88 70 236 101 329 30 93 55 179 55 190 0
12 18 84 41 161 22 77 51 178 64 224 27 93 38 111 69 111 24 0 33 4 171 84
120 69 154 95 282 213 103 95 213 189 333 287 l72 59 -7 71 c-3 39 -16 95 -28
125 -22 54 -23 55 -102 86 -44 17 -95 39 -113 49 -19 10 -82 30 -140 45 -59
16 -174 47 -257 69 -369 101 -605 153 -719 159 -124 6 -175 24 -304 107 -171
109 -576 319 -831 431 -96 42 -201 90 -234 107 -33 16 -80 33 -106 38 -25 4
-55 11 -66 16 -15 6 -12 -3 16 -42z m312 -3100 c309 -154 726 -379 898 -483
l86 -53 -17 -46 c-30 -77 -108 -242 -116 -242 -22 0 -280 207 -404 325 -152
145 -449 409 -537 478 -51 40 -69 77 -38 77 9 0 66 -25 128 -56z"/>
<path d="M3257 5140 c-27 -32 -33 -55 -19 -77 42 -67 152 -163 299 -261 109
-73 158 -99 225 -116 72 -18 104 -6 129 48 41 90 20 121 -156 233 -167 107
-325 182 -416 198 -32 6 -39 3 -62 -25z m196 -76 c33 -11 52 -25 62 -44 8 -16
24 -31 35 -35 11 -3 20 -11 20 -16 0 -8 -21 -46 -37 -68 -2 -3 -18 9 -36 26
-17 16 -54 43 -80 59 -50 30 -71 69 -46 85 19 12 29 11 82 -7z m272 -190 c50
-33 95 -75 95 -87 0 -6 -25 -8 -60 -4 -49 4 -98 23 -138 53 -9 7 34 64 48 64
8 0 33 -12 55 -26z"/>
<path d="M1620 4343 c-130 -133 -292 -320 -350 -403 -14 -19 -53 -65 -87 -102
-34 -36 -65 -78 -69 -92 -11 -44 58 -156 97 -156 16 0 61 45 84 84 9 14 15 15
41 5 37 -15 64 -6 64 19 0 28 -24 44 -75 50 -51 5 -56 25 -9 30 42 5 61 26
175 204 57 88 137 204 177 258 50 69 72 107 72 127 0 29 -15 53 -34 53 -5 0
-44 -35 -86 -77z"/>
<path d="M4895 4276 c-16 -7 -41 -25 -54 -39 l-24 -26 22 -54 c26 -63 63 -98
177 -163 277 -160 411 -192 441 -104 7 19 12 56 12 81 l1 46 -138 86 c-151 94
-243 139 -342 168 -36 10 -65 19 -65 19 0 -1 -13 -7 -30 -14z m196 -117 c59
-29 60 -31 45 -52 -9 -12 -22 -33 -28 -47 -7 -14 -13 -27 -14 -28 -6 -9 -112
81 -122 103 -28 61 24 72 119 24z m202 -111 c51 -36 97 -80 97 -93 0 -20 -29
-38 -59 -37 -32 1 -125 44 -137 64 -4 7 1 17 14 26 12 8 22 22 22 32 0 36 20
39 63 8z"/>
<path d="M1034 3578 c34 -20 160 -48 170 -38 10 10 9 11 -73 34 -30 9 -68 16
-85 16 -28 -1 -29 -2 -12 -12z"/>
<path d="M3090 3495 c0 -8 5 -15 10 -15 6 0 10 7 10 15 0 8 -4 15 -10 15 -5 0
-10 -7 -10 -15z"/>
<path d="M1170 3480 c0 -5 7 -10 16 -10 8 0 12 5 9 10 -3 6 -10 10 -16 10 -5
0 -9 -4 -9 -10z"/>
<path d="M5119 1583 c-50 -103 -136 -238 -168 -266 -16 -13 -66 -45 -112 -72
-46 -27 -86 -50 -88 -51 -2 -2 4 -15 13 -29 13 -20 25 -25 56 -25 21 0 50 4
63 9 37 14 210 184 282 276 35 44 72 89 84 99 32 29 25 48 -34 89 -29 20 -56
37 -59 37 -3 0 -19 -30 -37 -67z"/>
</g>
</svg>
